<?xml version="1.0" encoding="iso-8859-1"?>
<!-- Generator: Adobe Illustrator 19.0.0, SVG Export Plug-In . SVG Version: 6.00 Build 0)  -->
<svg version="1.1" id="Layer_1" xmlns="http://www.w3.org/2000/svg" xmlns:xlink="http://www.w3.org/1999/xlink" x="0px" y="0px"
	 viewBox="0 0 496.158 496.158" style="enable-background:new 0 0 496.158 496.158;" xml:space="preserve">
<path style="fill:#a1045a;" d="M248.082,0.003C111.07,0.003,0,111.063,0,248.085c0,137.001,111.07,248.07,248.082,248.07
	c137.006,0,248.076-111.069,248.076-248.07C496.158,111.062,385.088,0.003,248.082,0.003z"/>
<path d="M361.994,172.921H128.256c-32.05,0-58.031,25.979-58.031,58.029v38.285c0,32.049,25.981,58.032,58.031,58.032h233.738
	c32.051,0,58.03-25.983,58.03-58.032V230.95C420.024,198.9,394.045,172.921,361.994,172.921z"/>
<ellipse cx="245.129" cy="248.079" rx="119.89" ry="120.7"/>
<g>
	<path style="fill:#FFFFFF;" d="M361.488,185.011c-40.7,0-62.061,0-62.061,0s-47.15,1.61-47.15,48.357v35.465
		c0,0,2.043,24.059-24.15,47.027l135.256-0.111c0,0,44.049-5.411,44.049-45.306c0-39.896,0-39.896,0-39.896
		S402.195,185.011,361.488,185.011z"/>
	<polygon style="fill:#FFFFFF;" points="171.275,209.592 164.626,254.929 156.365,209.794 136.819,209.794 128.355,254.929 
		121.909,209.794 99.744,209.794 118.283,286.97 137.826,286.97 146.291,239.414 154.955,286.97 174.701,286.97 193.037,209.592 	
		"/>
	<rect x="202.309" y="230.749" style="fill:#FFFFFF;" width="19.95" height="55.815"/>
	<path style="fill:#FFFFFF;" d="M212.484,205.16c-6.402,0-11.588,4.467-11.588,9.974c0,5.509,5.186,9.974,11.588,9.974
		c6.396,0,11.584-4.465,11.584-9.974C224.068,209.626,218.881,205.16,212.484,205.16z"/>
</g>
<rect x="357.859" y="230.749" width="19.949" height="55.815"/>
<ellipse cx="368.039" cy="215.139" rx="11.585" ry="9.974"/>
<polygon points="345.57,227.928 345.57,209.794 279.277,209.794 279.277,286.364 300.637,286.364 300.637,262.988 341.139,262.988 
	341.139,245.056 300.637,245.056 300.637,227.928 "/>
<g>
	<polygon style="fill:#231F20;" points="412.842,175.267 412.842,177.003 417.65,177.003 417.65,191.075 419.714,191.075 
		419.714,177.003 424.545,177.003 424.545,175.267 	"/>
	<path style="fill:#231F20;" d="M441.033,175.267h-2.604l-2.814,7.646c-0.703,1.994-1.266,3.729-1.689,5.324h-0.046
		c-0.422-1.642-0.938-3.377-1.595-5.324l-2.697-7.646h-2.604l-1.102,15.807h1.946l0.421-6.778c0.143-2.392,0.259-5.02,0.306-6.989
		h0.048c0.445,1.876,1.055,3.893,1.806,6.145l2.579,7.529h1.548l2.792-7.669c0.797-2.181,1.43-4.175,1.992-6.004h0.047
		c0,1.947,0.142,4.621,0.258,6.825l0.377,6.942h2.016L441.033,175.267z"/>
</g>
<g>
</g>
<g>
</g>
<g>
</g>
<g>
</g>
<g>
</g>
<g>
</g>
<g>
</g>
<g>
</g>
<g>
</g>
<g>
</g>
<g>
</g>
<g>
</g>
<g>
</g>
<g>
</g>
<g>
</g>
</svg>
